<svg width="49" height="49" viewBox="0 0 49 49" fill="none" xmlns="http://www.w3.org/2000/svg">
<g clip-path="url(#clip0_4_182)">
<path d="M-9.89661 -1.52588e-05H58.8965V49H-9.89661V-1.52588e-05Z" fill="#009B3A"/>
<path d="M-4.04913 24.5L24.5 43.05L53.0491 24.5L24.5 5.95L-4.04913 24.5Z" fill="#FEDF00"/>
<path d="M24.5 36.75C31.1488 36.75 36.5388 31.2655 36.5388 24.5C36.5388 17.7345 31.1488 12.25 24.5 12.25C17.8511 12.25 12.4612 17.7345 12.4612 24.5C12.4612 31.2655 17.8511 36.75 24.5 36.75Z" fill="#002776"/>
<mask id="mask0_4_182" style="mask-type:luminance" maskUnits="userSpaceOnUse" x="12" y="12" width="25" height="25">
<path d="M24.5 36.75C31.1488 36.75 36.5388 31.2655 36.5388 24.5C36.5388 17.7345 31.1488 12.25 24.5 12.25C17.8511 12.25 12.4612 17.7345 12.4612 24.5C12.4612 31.2655 17.8511 36.75 24.5 36.75Z" fill="white"/>
</mask>
<g mask="url(#mask0_4_182)">
<path d="M-11.6164 49C-11.6164 41.1098 -8.53607 33.5428 -3.05305 27.9636C2.42996 22.3844 9.86652 19.25 17.6207 19.25C25.3748 19.25 32.8114 22.3844 38.2944 27.9636C43.7774 33.5428 46.8577 41.1098 46.8577 49H45.1379C45.1379 41.5739 42.2388 34.452 37.0783 29.201C31.9178 23.95 24.9187 21 17.6207 21C10.3227 21 3.32353 23.95 -1.83695 29.201C-6.99744 34.452 -9.89657 41.5739 -9.89657 49H-11.6164Z" fill="white"/>
</g>
<path fill-rule="evenodd" clip-rule="evenodd" d="M14.2322 20.9192C14.368 20.9022 14.4909 20.825 14.5739 20.7044C14.6568 20.5838 14.693 20.4298 14.6745 20.2762C14.6559 20.1227 14.5842 19.9822 14.4751 19.8856C14.3659 19.789 14.2283 19.7443 14.0925 19.7612C13.9567 19.7782 13.8338 19.8555 13.7508 19.9761C13.6679 20.0966 13.6317 20.2507 13.6502 20.4042C13.6688 20.5578 13.7405 20.6983 13.8496 20.7949C13.9588 20.8915 14.0964 20.9362 14.2322 20.9192ZM14.2063 20.7042C14.286 20.6942 14.3579 20.6463 14.4061 20.571C14.4542 20.4957 14.4748 20.3992 14.4631 20.3027C14.4515 20.2061 14.4086 20.1175 14.344 20.0563C14.2793 19.9951 14.1982 19.9663 14.1184 19.9763C14.0387 19.9863 13.9668 20.0342 13.9186 20.1095C13.8705 20.1848 13.8499 20.2813 13.8616 20.3778C13.8732 20.4743 13.9161 20.5629 13.9807 20.6241C14.0454 20.6853 14.1265 20.7141 14.2063 20.7042Z" fill="#009B3A"/>
<path fill-rule="evenodd" clip-rule="evenodd" d="M15.1658 20.8134L15.3785 20.7981L15.349 20.3663L15.8071 20.3335C15.9026 20.3266 15.9915 20.2816 16.0543 20.2082C16.1171 20.1348 16.1487 20.0392 16.1421 19.9423C16.1355 19.8454 16.0912 19.7551 16.0191 19.6915C15.9469 19.6278 15.8527 19.5958 15.7573 19.6027L15.1028 19.6496L15.1658 20.8134ZM15.3343 20.1504L15.776 20.1187C15.8151 20.1159 15.8514 20.0975 15.8771 20.0675C15.9028 20.0375 15.9158 19.9983 15.9131 19.9587C15.9104 19.919 15.8922 19.8821 15.8627 19.8561C15.8332 19.83 15.7947 19.817 15.7556 19.8198L15.3139 19.8514L15.3343 20.1504Z" fill="#009B3A"/>
<path d="M16.1387 20.7441C16.1274 20.578 16.1027 20.2127 15.8573 20.2304L15.5466 20.2528C15.9064 20.2268 15.9311 20.5922 15.9424 20.7582" fill="#009B3A"/>
<path fill-rule="evenodd" clip-rule="evenodd" d="M16.6196 20.7218L17.16 20.7122C17.2245 20.7111 17.2882 20.697 17.3474 20.6708C17.4065 20.6446 17.4601 20.6068 17.5049 20.5596C17.5497 20.5124 17.585 20.4566 17.6086 20.3955C17.6323 20.3344 17.6438 20.2692 17.6427 20.2036L17.6399 20.0369C17.6387 19.9713 17.6249 19.9065 17.5992 19.8463C17.5735 19.786 17.5363 19.7316 17.4899 19.686C17.4435 19.6404 17.3887 19.6045 17.3287 19.5804C17.2686 19.5564 17.2045 19.5446 17.14 19.5457L16.5995 19.5553L16.6196 20.7218ZM16.8287 20.5014L17.1399 20.4959C17.2224 20.4944 17.301 20.4596 17.3583 20.3992C17.4157 20.3388 17.4471 20.2577 17.4456 20.1737L17.4439 20.0737C17.4425 19.9898 17.4083 19.9098 17.3489 19.8515C17.2896 19.7931 17.2098 19.7612 17.1273 19.7626L16.8162 19.7682L16.8287 20.5014Z" fill="#009B3A"/>
<path d="M18.0753 20.7072L19.1066 20.7439L19.114 20.5274L18.2792 20.4977L18.2895 20.1979L18.9443 20.2211L18.9511 20.0213L18.2964 19.998L18.3044 19.7648L19.0901 19.7927L19.0975 19.5762L18.1154 19.5413L18.0753 20.7072Z" fill="#009B3A"/>
<path d="M19.53 20.7702L19.7258 20.7877L19.7943 19.9907L19.9542 20.808L20.1337 20.824L20.4306 20.0474L20.3621 20.8443L20.5579 20.8617L20.6579 19.6995L20.3723 19.6741L20.0753 20.4507L19.9154 19.6334L19.6299 19.608L19.53 20.7702Z" fill="#009B3A"/>
<path d="M21.9055 21.0429L22.753 21.1911L22.7863 20.9939L22.1325 20.8796L22.1769 20.6168L22.7096 20.71L22.7429 20.5129L22.2102 20.4197L22.2407 20.239L22.8743 20.3498L22.9076 20.1527L22.0803 20.008L21.9055 21.0429Z" fill="#009B3A"/>
<path fill-rule="evenodd" clip-rule="evenodd" d="M24.0827 21.478L24.2888 21.5323L24.3955 21.1128L24.8395 21.2296C24.932 21.2539 25.0302 21.2399 25.1126 21.1905C25.1949 21.1412 25.2546 21.0606 25.2786 20.9664C25.3025 20.8723 25.2887 20.7723 25.2402 20.6885C25.1917 20.6047 25.1124 20.544 25.0199 20.5196L24.3856 20.3527L24.0827 21.478ZM24.4488 20.903L24.8769 21.0157C24.9148 21.0256 24.955 21.0199 24.9886 20.9997C25.0223 20.9795 25.0468 20.9465 25.0565 20.908C25.0663 20.8695 25.0607 20.8286 25.0408 20.7943C25.021 20.76 24.9886 20.7352 24.9507 20.7252L24.5226 20.6125L24.4488 20.903Z" fill="#009B3A"/>
<path fill-rule="evenodd" clip-rule="evenodd" d="M25.4894 21.8564L25.6932 21.9223L25.8199 21.5103L26.2589 21.6523C26.3504 21.6819 26.4494 21.6735 26.5342 21.6291C26.6189 21.5846 26.6825 21.5077 26.7109 21.4152C26.7394 21.3228 26.7303 21.2224 26.6857 21.1361C26.6411 21.0498 26.5647 20.9847 26.4732 20.9551L25.8461 20.7523L25.4894 21.8564ZM25.8832 21.3043L26.3065 21.4412C26.3439 21.4533 26.3844 21.4499 26.4191 21.4317C26.4538 21.4136 26.4798 21.3821 26.4915 21.3443C26.5031 21.3064 26.4994 21.2654 26.4811 21.2301C26.4629 21.1947 26.4316 21.1681 26.3942 21.156L25.9709 21.0191L25.8832 21.3043Z" fill="#009B3A"/>
<path d="M26.4205 22.1581C26.4693 21.9997 26.5764 21.6513 26.3413 21.5753L26.0436 21.479C26.3884 21.5905 26.2812 21.9389 26.2325 22.0973" fill="#009B3A"/>
<path fill-rule="evenodd" clip-rule="evenodd" d="M27.3578 22.5C27.486 22.5487 27.6301 22.5379 27.7583 22.4699C27.8866 22.402 27.9886 22.2823 28.0418 22.1374C28.0951 21.9925 28.0952 21.8342 28.0423 21.6972C27.9893 21.5603 27.8875 21.4559 27.7593 21.4072C27.6312 21.3584 27.4871 21.3692 27.3588 21.4372C27.2305 21.5052 27.1285 21.6248 27.0753 21.7697C27.0221 21.9146 27.0219 22.073 27.0749 22.2099C27.1279 22.3469 27.2296 22.4512 27.3578 22.5ZM27.4324 22.297C27.5077 22.3257 27.5931 22.3169 27.67 22.2728C27.7469 22.2286 27.8089 22.1526 27.8424 22.0616C27.8759 21.9705 27.8781 21.8717 27.8485 21.7871C27.8189 21.7024 27.76 21.6388 27.6848 21.6101C27.6095 21.5815 27.524 21.5902 27.4471 21.6344C27.3702 21.6785 27.3082 21.7545 27.2747 21.8456C27.2413 21.9367 27.2391 22.0354 27.2686 22.1201C27.2982 22.2047 27.3571 22.2684 27.4324 22.297Z" fill="#009B3A"/>
<mask id="mask1_4_182" style="mask-type:luminance" maskUnits="userSpaceOnUse" x="28" y="21" width="2" height="3">
<path d="M28.2344 22.8407L28.6869 21.7756L29.6381 22.1989L29.1857 23.264L28.2344 22.8407ZM29.0138 22.3372L28.9363 22.5198L29.4119 22.7314L29.4895 22.5489L29.0138 22.3372Z" fill="white"/>
</mask>
<g mask="url(#mask1_4_182)">
<path fill-rule="evenodd" clip-rule="evenodd" d="M28.7099 23.0525C28.836 23.1086 28.9808 23.1063 29.1124 23.0461C29.244 22.9859 29.3517 22.8727 29.4117 22.7314C29.4717 22.5902 29.4791 22.4324 29.4324 22.2928C29.3856 22.1533 29.2885 22.0433 29.1624 21.9872C29.0363 21.9311 28.8915 21.9334 28.7599 21.9936C28.6283 22.0538 28.5206 22.167 28.4606 22.3082C28.4006 22.4495 28.3931 22.6072 28.4399 22.7468C28.4866 22.8864 28.5837 22.9963 28.7099 23.0525ZM28.7939 22.8546C28.868 22.8876 28.954 22.8839 29.033 22.8444C29.1121 22.805 29.1777 22.7329 29.2154 22.6441C29.2531 22.5553 29.2599 22.4571 29.2342 22.371C29.2085 22.2849 29.1524 22.218 29.0784 22.185C29.0043 22.1521 28.9183 22.1557 28.8392 22.1952C28.7602 22.2347 28.6946 22.3068 28.6569 22.3955C28.6191 22.4843 28.6124 22.5826 28.6381 22.6687C28.6638 22.7548 28.7198 22.8217 28.7939 22.8546Z" fill="#009B3A"/>
</g>
<path d="M29.0104 22.5531L29.4092 22.7302L29.3445 22.8821L28.9458 22.705L29.0104 22.5531Z" fill="#009B3A"/>
<path d="M29.2579 22.6628L29.4092 22.7299L29.1816 23.2642L29.0304 23.197L29.2579 22.6628Z" fill="#009B3A"/>
<path fill-rule="evenodd" clip-rule="evenodd" d="M29.5651 23.4433L29.7563 23.5407L29.945 23.1541L30.3569 23.3639C30.4427 23.4077 30.5419 23.4151 30.6325 23.3847C30.7232 23.3543 30.7979 23.2885 30.8402 23.2017C30.8825 23.1149 30.889 23.0144 30.8583 22.9221C30.8275 22.8298 30.762 22.7534 30.6762 22.7097L30.0877 22.41L29.5651 23.4433ZM30.0393 22.9608L30.4365 23.1632C30.4716 23.181 30.5122 23.1841 30.5493 23.1717C30.5864 23.1592 30.6169 23.1323 30.6342 23.0968C30.6515 23.0613 30.6542 23.0201 30.6416 22.9824C30.629 22.9447 30.6022 22.9134 30.5671 22.8955L30.1699 22.6932L30.0393 22.9608Z" fill="#009B3A"/>
<path d="M30.4388 23.889C30.5114 23.7404 30.671 23.4135 30.4504 23.3012L30.171 23.1589C30.4945 23.3236 30.3349 23.6506 30.2623 23.7992" fill="#009B3A"/>
<path d="M30.8629 24.1177L31.761 24.6347L31.8659 24.4461L31.1388 24.0276L31.284 23.7665L31.8542 24.0947L31.951 23.9207L31.3808 23.5924L31.4937 23.3893L32.178 23.7832L32.2828 23.5947L31.4275 23.1022L30.8629 24.1177Z" fill="#009B3A"/>
<path d="M32.5357 24.6888C32.4741 24.7872 32.5365 24.8968 32.6747 24.9864C32.8128 25.0759 32.9069 25.0727 32.9466 25.0095C33.072 24.8092 32.347 24.5171 32.5705 24.1679C32.7632 23.8679 33.0928 24.1014 33.2171 24.182C33.3415 24.2626 33.5411 24.471 33.3858 24.7113L33.1752 24.5747C33.2412 24.4693 33.1687 24.3679 33.0582 24.2963C32.9511 24.2269 32.8641 24.1952 32.8003 24.2971C32.6935 24.46 33.404 24.7675 33.1862 25.1154C33.0256 25.3719 32.7461 25.2599 32.5596 25.1391C32.4008 25.0361 32.1634 24.7933 32.3181 24.5477L32.5357 24.6888Z" fill="#009B3A"/>
<path d="M33.7657 25.5164C33.6991 25.6113 33.7558 25.7242 33.8892 25.8209C34.0225 25.9177 34.1166 25.9195 34.1596 25.8585C34.2951 25.6652 33.5861 25.3348 33.8272 24.9981C34.035 24.7087 34.3522 24.9594 34.4722 25.0465C34.5923 25.1336 34.7809 25.3525 34.6135 25.5841L34.4101 25.4365C34.4815 25.3347 34.4143 25.2297 34.3076 25.1522C34.2043 25.0772 34.119 25.041 34.0501 25.1393C33.935 25.2964 34.6288 25.6412 34.3934 25.9771C34.2198 26.2247 33.9465 26.098 33.7664 25.9673C33.6131 25.856 33.3885 25.6009 33.5556 25.3639L33.7657 25.5164Z" fill="#009B3A"/>
<path fill-rule="evenodd" clip-rule="evenodd" d="M34.929 26.8587C35.0361 26.9454 35.1764 26.9804 35.319 26.9561C35.4617 26.9318 35.595 26.8501 35.6897 26.729C35.7843 26.6079 35.8325 26.4574 35.8237 26.3105C35.8149 26.1636 35.7498 26.0323 35.6427 25.9457C35.5356 25.859 35.3953 25.824 35.2527 25.8483C35.11 25.8726 34.9767 25.9543 34.8821 26.0754C34.7874 26.1964 34.7392 26.347 34.748 26.4939C34.7568 26.6408 34.8219 26.772 34.929 26.8587ZM35.0615 26.6891C35.1244 26.7401 35.2084 26.7586 35.2949 26.7408C35.3815 26.723 35.4635 26.6702 35.523 26.5941C35.5825 26.518 35.6146 26.4248 35.6122 26.335C35.6098 26.2452 35.5731 26.1661 35.5102 26.1152C35.4473 26.0643 35.3633 26.0457 35.2768 26.0636C35.1903 26.0814 35.1082 26.1341 35.0487 26.2103C34.9892 26.2864 34.9572 26.3796 34.9596 26.4694C34.962 26.5592 34.9987 26.6382 35.0615 26.6891Z" fill="#009B3A"/>
<path d="M14.6724 21.775L14.513 22.2743L14.7583 22.3554" fill="white"/>
<path d="M14.6724 21.775L14.8319 22.2743L14.5865 22.3554" fill="white"/>
<path d="M15.1631 22.1378L14.6482 22.1399L14.6471 22.4003" fill="white"/>
<path d="M15.1631 22.1367L14.7447 22.4463L14.594 22.2351" fill="white"/>
<path d="M14.1817 22.1367L14.6001 22.4464L14.7507 22.2351" fill="white"/>
<path d="M14.1817 22.1378L14.6966 22.1399L14.6976 22.4003" fill="white"/>
<path d="M14.9759 22.7234L14.8173 22.2247L14.5711 22.3064" fill="white"/>
<path d="M14.9753 22.724L14.5585 22.416L14.7107 22.203" fill="white"/>
<path d="M14.3699 22.7248L14.7867 22.4169L14.6345 22.2038" fill="white"/>
<path d="M14.3693 22.7242L14.5279 22.2255L14.7741 22.3072" fill="white"/>
<path d="M15.7371 26.925L15.5776 27.4243L15.823 27.5054" fill="white"/>
<path d="M15.7371 26.925L15.8965 27.4243L15.6511 27.5054" fill="white"/>
<path d="M16.2277 27.2878L15.7128 27.2899L15.7118 27.5503" fill="white"/>
<path d="M16.2277 27.2867L15.8093 27.5963L15.6587 27.3851" fill="white"/>
<path d="M15.2463 27.2867L15.6647 27.5964L15.8154 27.3851" fill="white"/>
<path d="M15.2463 27.2878L15.7612 27.2899L15.7623 27.5503" fill="white"/>
<path d="M16.0405 27.8734L15.8819 27.3747L15.6357 27.4564" fill="white"/>
<path d="M16.0399 27.874L15.6231 27.5661L15.7753 27.353" fill="white"/>
<path d="M15.4346 27.8748L15.8514 27.5669L15.6992 27.3538" fill="white"/>
<path d="M15.434 27.8742L15.5926 27.3755L15.8387 27.4572" fill="white"/>
<path d="M14.2629 28.1125L14.1301 28.5286L14.3345 28.5962" fill="white"/>
<path d="M14.2629 28.1125L14.3958 28.5286L14.1913 28.5962" fill="white"/>
<path d="M14.6718 28.4148L14.2427 28.4166L14.2419 28.6336" fill="white"/>
<path d="M14.6718 28.4139L14.3232 28.672L14.1976 28.4959" fill="white"/>
<path d="M13.8541 28.4139L14.2027 28.672L14.3283 28.4959" fill="white"/>
<path d="M13.8541 28.4148L14.2831 28.4166L14.284 28.6336" fill="white"/>
<path d="M14.5157 28.9029L14.3836 28.4873L14.1784 28.5554" fill="white"/>
<path d="M14.5153 28.9034L14.1679 28.6469L14.2948 28.4693" fill="white"/>
<path d="M14.0107 28.9039L14.3581 28.6474L14.2312 28.4698" fill="white"/>
<path d="M14.0103 28.9034L14.1424 28.4879L14.3476 28.556" fill="white"/>
<path d="M16.9164 26.45L16.8405 26.6878L16.9573 26.7264" fill="white"/>
<path d="M16.9164 26.45L16.9923 26.6878L16.8755 26.7264" fill="white"/>
<path d="M17.1501 26.6228L16.9049 26.6238L16.9044 26.7478" fill="white"/>
<path d="M17.1501 26.6222L16.9509 26.7697L16.8791 26.6691" fill="white"/>
<path d="M16.6827 26.6222L16.8819 26.7697L16.9537 26.6691" fill="white"/>
<path d="M16.6827 26.6227L16.9279 26.6238L16.9284 26.7477" fill="white"/>
<path d="M17.0609 26.9016L16.9853 26.6641L16.8681 26.703" fill="white"/>
<path d="M17.0606 26.9018L16.8621 26.7552L16.9346 26.6538" fill="white"/>
<path d="M16.7723 26.9023L16.9708 26.7556L16.8983 26.6542" fill="white"/>
<path d="M16.772 26.902L16.8475 26.6645L16.9647 26.7034" fill="white"/>
<path d="M18.2431 28.2292L18.1102 28.6453L18.3147 28.7129" fill="white"/>
<path d="M18.2431 28.2292L18.376 28.6453L18.1715 28.7129" fill="white"/>
<path d="M18.652 28.5315L18.2229 28.5333L18.222 28.7502" fill="white"/>
<path d="M18.652 28.5306L18.3033 28.7886L18.1778 28.6126" fill="white"/>
<path d="M17.8342 28.5306L18.1829 28.7886L18.3084 28.6126" fill="white"/>
<path d="M17.8342 28.5315L18.2633 28.5333L18.2642 28.7502" fill="white"/>
<path d="M18.4959 29.0196L18.3637 28.604L18.1586 28.6721" fill="white"/>
<path d="M18.4954 29.0201L18.1481 28.7635L18.2749 28.586" fill="white"/>
<path d="M17.9909 29.0206L18.3382 28.764L18.2114 28.5865" fill="white"/>
<path d="M17.9904 29.0201L18.1226 28.6045L18.3277 28.6726" fill="white"/>
<path d="M17.8828 29.5333L17.7765 29.8662L17.94 29.9203" fill="white"/>
<path d="M17.8828 29.5333L17.989 29.8662L17.8255 29.9203" fill="white"/>
<path d="M18.2101 29.7754L17.8669 29.7768L17.8662 29.9504" fill="white"/>
<path d="M18.2101 29.7747L17.9312 29.9811L17.8308 29.8403" fill="white"/>
<path d="M17.5556 29.7744L17.8345 29.9809L17.935 29.84" fill="white"/>
<path d="M17.5556 29.7752L17.8989 29.7766L17.8996 29.9502" fill="white"/>
<path d="M18.0849 30.1661L17.9792 29.8336L17.815 29.8881" fill="white"/>
<path d="M18.0845 30.1665L17.8067 29.9612L17.9081 29.8192" fill="white"/>
<path d="M17.6809 30.1665L17.9588 29.9612L17.8573 29.8192" fill="white"/>
<path d="M17.6805 30.1661L17.7863 29.8336L17.9504 29.8881" fill="white"/>
<path d="M28.2345 20.175L28.0751 20.6743L28.3204 20.7554" fill="white"/>
<path d="M28.2345 20.175L28.3939 20.6743L28.1486 20.7554" fill="white"/>
<path d="M28.7252 20.5378L28.2103 20.5399L28.2092 20.8003" fill="white"/>
<path d="M28.7252 20.5367L28.3068 20.8463L28.1561 20.6351" fill="white"/>
<path d="M27.7438 20.5367L28.1621 20.8464L28.3128 20.6351" fill="white"/>
<path d="M27.7438 20.5378L28.2587 20.5399L28.2597 20.8003" fill="white"/>
<path d="M28.538 21.1234L28.3794 20.6247L28.1332 20.7064" fill="white"/>
<path d="M28.5374 21.124L28.1205 20.8161L28.2728 20.603" fill="white"/>
<path d="M27.932 21.1248L28.3488 20.8169L28.1966 20.6038" fill="white"/>
<path d="M27.9314 21.1242L28.09 20.6255L28.3362 20.7072" fill="white"/>
<path d="M32.9354 28.275L32.7759 28.7743L33.0213 28.8554" fill="white"/>
<path d="M32.9354 28.275L33.0948 28.7743L32.8495 28.8554" fill="white"/>
<path d="M33.426 28.6378L32.9111 28.6399L32.9101 28.9003" fill="white"/>
<path d="M33.426 28.6367L33.0076 28.9463L32.857 28.7351" fill="white"/>
<path d="M32.4446 28.6367L32.863 28.9464L33.0137 28.7351" fill="white"/>
<path d="M32.4446 28.6378L32.9595 28.6399L32.9606 28.9003" fill="white"/>
<path d="M33.2388 29.2234L33.0802 28.7247L32.834 28.8064" fill="white"/>
<path d="M33.2382 29.224L32.8214 28.916L32.9736 28.703" fill="white"/>
<path d="M32.6329 29.2248L33.0497 28.9169L32.8975 28.7038" fill="white"/>
<path d="M32.6323 29.2242L32.7909 28.7255L33.037 28.8072" fill="white"/>
<path d="M34.6061 28.5667L34.4998 28.8995L34.6634 28.9536" fill="white"/>
<path d="M34.6061 28.5667L34.7124 28.8995L34.5488 28.9536" fill="white"/>
<path d="M34.9335 28.8087L34.5902 28.8102L34.5895 28.9837" fill="white"/>
<path d="M34.9335 28.808L34.6546 29.0145L34.5541 28.8736" fill="white"/>
<path d="M34.2789 28.8078L34.5578 29.0142L34.6583 28.8734" fill="white"/>
<path d="M34.2789 28.8085L34.6222 28.8099L34.6229 28.9835" fill="white"/>
<path d="M34.8082 29.1994L34.7025 28.867L34.5384 28.9214" fill="white"/>
<path d="M34.8079 29.1998L34.53 28.9946L34.6315 28.8525" fill="white"/>
<path d="M34.4042 29.1998L34.6821 28.9946L34.5806 28.8525" fill="white"/>
<path d="M34.4039 29.1994L34.5096 28.867L34.6737 28.9214" fill="white"/>
<path d="M33.4267 29.4458L33.2938 29.8619L33.4983 29.9295" fill="white"/>
<path d="M33.4267 29.4458L33.5596 29.8619L33.3551 29.9295" fill="white"/>
<path d="M33.8356 29.7481L33.4065 29.7499L33.4056 29.9669" fill="white"/>
<path d="M33.8356 29.7472L33.4869 30.0053L33.3614 29.8292" fill="white"/>
<path d="M33.0178 29.7472L33.3665 30.0053L33.492 29.8292" fill="white"/>
<path d="M33.0178 29.7481L33.4469 29.7499L33.4478 29.9669" fill="white"/>
<path d="M33.6795 30.2363L33.5473 29.8207L33.3422 29.8888" fill="white"/>
<path d="M33.679 30.2368L33.3317 29.9802L33.4585 29.8026" fill="white"/>
<path d="M33.1745 30.2373L33.5218 29.9807L33.395 29.8031" fill="white"/>
<path d="M33.174 30.2368L33.3062 29.8212L33.5113 29.8893" fill="white"/>
<path d="M30.5276 32.0125L30.3947 32.4286L30.5992 32.4962" fill="white"/>
<path d="M30.5276 32.0125L30.6605 32.4286L30.456 32.4962" fill="white"/>
<path d="M30.9365 32.3148L30.5074 32.3166L30.5065 32.5336" fill="white"/>
<path d="M30.9365 32.3139L30.5878 32.572L30.4623 32.3959" fill="white"/>
<path d="M30.1187 32.3139L30.4674 32.572L30.5929 32.3959" fill="white"/>
<path d="M30.1187 32.3148L30.5478 32.3166L30.5487 32.5336" fill="white"/>
<path d="M30.7804 32.8029L30.6482 32.3873L30.4431 32.4554" fill="white"/>
<path d="M30.7799 32.8034L30.4326 32.5468L30.5594 32.3693" fill="white"/>
<path d="M30.2754 32.8039L30.6227 32.5473L30.4959 32.3698" fill="white"/>
<path d="M30.2749 32.8034L30.4071 32.3879L30.6122 32.456" fill="white"/>
<path d="M30.5112 33.3333L30.4049 33.6662L30.5685 33.7203" fill="white"/>
<path d="M30.5112 33.3333L30.6175 33.6662L30.454 33.7203" fill="white"/>
<path d="M30.8386 33.5754L30.4954 33.5768L30.4947 33.7504" fill="white"/>
<path d="M30.8386 33.5747L30.5597 33.7811L30.4593 33.6403" fill="white"/>
<path d="M30.1841 33.5744L30.463 33.7809L30.5634 33.64" fill="white"/>
<path d="M30.1841 33.5752L30.5273 33.5766L30.528 33.7502" fill="white"/>
<path d="M30.7134 33.9661L30.6076 33.6336L30.4435 33.6881" fill="white"/>
<path d="M30.713 33.9665L30.4351 33.7612L30.5366 33.6192" fill="white"/>
<path d="M30.3094 33.9665L30.5873 33.7612L30.4858 33.6192" fill="white"/>
<path d="M30.309 33.9661L30.4148 33.6336L30.5789 33.6881" fill="white"/>
<path d="M31.7233 31.1333L31.617 31.4662L31.7806 31.5203" fill="white"/>
<path d="M31.7233 31.1333L31.8296 31.4662L31.6661 31.5203" fill="white"/>
<path d="M32.0507 31.3754L31.7075 31.3768L31.7068 31.5504" fill="white"/>
<path d="M32.0507 31.3747L31.7718 31.5811L31.6714 31.4403" fill="white"/>
<path d="M31.3962 31.3744L31.6751 31.5809L31.7755 31.44" fill="white"/>
<path d="M31.3962 31.3752L31.7394 31.3766L31.7401 31.5502" fill="white"/>
<path d="M31.9255 31.7661L31.8197 31.4336L31.6556 31.4881" fill="white"/>
<path d="M31.9251 31.7665L31.6472 31.5612L31.7487 31.4192" fill="white"/>
<path d="M31.5215 31.7665L31.7994 31.5612L31.6979 31.4192" fill="white"/>
<path d="M31.5211 31.7661L31.6268 31.4336L31.791 31.4881" fill="white"/>
<path d="M32.6896 30.4292L32.5568 30.8453L32.7612 30.9129" fill="white"/>
<path d="M32.6896 30.4292L32.8225 30.8453L32.618 30.9129" fill="white"/>
<path d="M33.0985 30.7315L32.6694 30.7333L32.6686 30.9502" fill="white"/>
<path d="M33.0985 30.7306L32.7499 30.9886L32.6243 30.8126" fill="white"/>
<path d="M32.2808 30.7306L32.6294 30.9886L32.755 30.8126" fill="white"/>
<path d="M32.2808 30.7315L32.7098 30.7333L32.7107 30.9502" fill="white"/>
<path d="M32.9424 31.2196L32.8103 30.804L32.6051 30.8721" fill="white"/>
<path d="M32.942 31.2201L32.5946 30.9635L32.7215 30.786" fill="white"/>
<path d="M32.4374 31.2206L32.7848 30.964L32.6579 30.7865" fill="white"/>
<path d="M32.437 31.2201L32.5691 30.8045L32.7743 30.8726" fill="white"/>
<path d="M30.4785 30.9L30.3722 31.2329L30.5358 31.2869" fill="white"/>
<path d="M30.4785 30.9L30.5848 31.2329L30.4212 31.2869" fill="white"/>
<path d="M30.8059 31.1421L30.4626 31.1435L30.4619 31.3171" fill="white"/>
<path d="M30.8059 31.1413L30.527 31.3478L30.4265 31.2069" fill="white"/>
<path d="M30.1514 31.1411L30.4303 31.3476L30.5307 31.2067" fill="white"/>
<path d="M30.1514 31.1418L30.4946 31.1433L30.4953 31.3168" fill="white"/>
<path d="M30.6807 31.5327L30.5749 31.2003L30.4108 31.2548" fill="white"/>
<path d="M30.6803 31.5332L30.4024 31.3279L30.5039 31.1859" fill="white"/>
<path d="M30.2767 31.5332L30.5545 31.3279L30.4531 31.1859" fill="white"/>
<path d="M30.2763 31.5327L30.382 31.2003L30.5462 31.2548" fill="white"/>
<path d="M19.9138 24.5625L19.781 24.9786L19.9854 25.0462" fill="white"/>
<path d="M19.9138 24.5625L20.0467 24.9786L19.8422 25.0462" fill="white"/>
<path d="M20.3227 24.8648L19.8936 24.8666L19.8927 25.0836" fill="white"/>
<path d="M20.3227 24.8639L19.974 25.122L19.8485 24.9459" fill="white"/>
<path d="M19.5049 24.8639L19.8536 25.122L19.9791 24.9459" fill="white"/>
<path d="M19.5049 24.8648L19.934 24.8666L19.9349 25.0836" fill="white"/>
<path d="M20.1666 25.3529L20.0345 24.9373L19.8293 25.0054" fill="white"/>
<path d="M20.1661 25.3534L19.8188 25.0968L19.9457 24.9193" fill="white"/>
<path d="M19.6616 25.3539L20.009 25.0974L19.8821 24.9198" fill="white"/>
<path d="M19.6611 25.3534L19.7933 24.9379L19.9985 25.006" fill="white"/>
<path d="M27.7759 23.5333L27.6696 23.8662L27.8332 23.9203" fill="white"/>
<path d="M27.7759 23.5333L27.8822 23.8662L27.7186 23.9203" fill="white"/>
<path d="M28.1033 23.7754L27.76 23.7768L27.7593 23.9504" fill="white"/>
<path d="M28.1033 23.7747L27.8244 23.9811L27.7239 23.8403" fill="white"/>
<path d="M27.4487 23.7744L27.7276 23.9809L27.8281 23.84" fill="white"/>
<path d="M27.4487 23.7752L27.792 23.7766L27.7927 23.9502" fill="white"/>
<path d="M27.978 24.1661L27.8723 23.8336L27.7082 23.8881" fill="white"/>
<path d="M27.9777 24.1665L27.6998 23.9612L27.8013 23.8192" fill="white"/>
<path d="M27.574 24.1665L27.8519 23.9612L27.7504 23.8192" fill="white"/>
<path d="M27.5737 24.1661L27.6794 23.8336L27.8435 23.8881" fill="white"/>
<path d="M24.5 29.475L24.3406 29.9743L24.5859 30.0554" fill="white"/>
<path d="M24.5 29.475L24.6594 29.9743L24.4141 30.0554" fill="white"/>
<path d="M24.9907 29.8378L24.4758 29.8399L24.4747 30.1003" fill="white"/>
<path d="M24.9907 29.8367L24.5723 30.1464L24.4216 29.9351" fill="white"/>
<path d="M24.0093 29.8367L24.4277 30.1464L24.5783 29.9351" fill="white"/>
<path d="M24.0093 29.8378L24.5242 29.8399L24.5252 30.1003" fill="white"/>
<path d="M24.8035 30.4234L24.6449 29.9247L24.3987 30.0064" fill="white"/>
<path d="M24.8029 30.424L24.386 30.1161L24.5383 29.903" fill="white"/>
<path d="M24.1975 30.4248L24.6143 30.1169L24.4621 29.9038" fill="white"/>
<path d="M24.1969 30.4242L24.3555 29.9255L24.6017 30.0072" fill="white"/>
<path d="M25.8923 27.1292L25.7594 27.5453L25.9639 27.6129" fill="white"/>
<path d="M25.8923 27.1292L26.0251 27.5453L25.8207 27.6129" fill="white"/>
<path d="M26.3011 27.4315L25.8721 27.4333L25.8712 27.6502" fill="white"/>
<path d="M26.3011 27.4306L25.9525 27.6886L25.8269 27.5126" fill="white"/>
<path d="M25.4834 27.4306L25.832 27.6886L25.9576 27.5126" fill="white"/>
<path d="M25.4834 27.4315L25.9125 27.4333L25.9134 27.6502" fill="white"/>
<path d="M26.1451 27.9196L26.0129 27.504L25.8078 27.5721" fill="white"/>
<path d="M26.1446 27.9201L25.7972 27.6635L25.9241 27.486" fill="white"/>
<path d="M25.6401 27.9206L25.9874 27.664L25.8606 27.4865" fill="white"/>
<path d="M25.6396 27.9201L25.7718 27.5045L25.9769 27.5726" fill="white"/>
<path d="M24.5 26.0292L24.3671 26.4453L24.5716 26.5129" fill="white"/>
<path d="M24.5 26.0292L24.6329 26.4453L24.4284 26.5129" fill="white"/>
<path d="M24.9089 26.3315L24.4798 26.3333L24.4789 26.5502" fill="white"/>
<path d="M24.9089 26.3306L24.5602 26.5886L24.4347 26.4126" fill="white"/>
<path d="M24.0911 26.3306L24.4398 26.5886L24.5653 26.4126" fill="white"/>
<path d="M24.0911 26.3315L24.5202 26.3333L24.5211 26.5502" fill="white"/>
<path d="M24.7528 26.8196L24.6206 26.404L24.4155 26.4721" fill="white"/>
<path d="M24.7523 26.8201L24.405 26.5635L24.5318 26.386" fill="white"/>
<path d="M24.2478 26.8206L24.5951 26.564L24.4683 26.3865" fill="white"/>
<path d="M24.2473 26.8201L24.3795 26.4045L24.5846 26.4726" fill="white"/>
<path d="M23.288 27.2167L23.1817 27.5495L23.3452 27.6036" fill="white"/>
<path d="M23.288 27.2167L23.3943 27.5495L23.2307 27.6036" fill="white"/>
<path d="M23.6154 27.4587L23.2721 27.4602L23.2714 27.6337" fill="white"/>
<path d="M23.6154 27.458L23.3364 27.6645L23.236 27.5236" fill="white"/>
<path d="M22.9608 27.4578L23.2397 27.6642L23.3402 27.5234" fill="white"/>
<path d="M22.9608 27.4585L23.3041 27.46L23.3048 27.6335" fill="white"/>
<path d="M23.4901 27.8494L23.3844 27.517L23.2203 27.5714" fill="white"/>
<path d="M23.4897 27.8498L23.2119 27.6446L23.3134 27.5025" fill="white"/>
<path d="M23.0861 27.8498L23.364 27.6446L23.2625 27.5025" fill="white"/>
<path d="M23.0858 27.8494L23.1915 27.517L23.3556 27.5714" fill="white"/>
<path d="M23.894 28.1667L23.8181 28.4044L23.9349 28.443" fill="white"/>
<path d="M23.894 28.1667L23.9699 28.4044L23.8531 28.443" fill="white"/>
<path d="M24.1277 28.3394L23.8825 28.3404L23.882 28.4644" fill="white"/>
<path d="M24.1277 28.3389L23.9285 28.4863L23.8567 28.3857" fill="white"/>
<path d="M23.6603 28.3389L23.8595 28.4863L23.9313 28.3857" fill="white"/>
<path d="M23.6603 28.3394L23.9055 28.3404L23.906 28.4644" fill="white"/>
<path d="M24.0385 28.6182L23.9629 28.3807L23.8457 28.4196" fill="white"/>
<path d="M24.0382 28.6185L23.8397 28.4718L23.9122 28.3704" fill="white"/>
<path d="M23.7499 28.6189L23.9484 28.4723L23.8759 28.3708" fill="white"/>
<path d="M23.7496 28.6186L23.8251 28.3811L23.9423 28.4201" fill="white"/>
<path d="M28.1035 32.3125L27.9706 32.7286L28.175 32.7962" fill="white"/>
<path d="M28.1035 32.3125L28.2363 32.7286L28.0319 32.7962" fill="white"/>
<path d="M28.5123 32.6148L28.0833 32.6166L28.0824 32.8336" fill="white"/>
<path d="M28.5123 32.6139L28.1637 32.872L28.0381 32.6959" fill="white"/>
<path d="M27.6946 32.6139L28.0432 32.872L28.1688 32.6959" fill="white"/>
<path d="M27.6946 32.6148L28.1237 32.6166L28.1245 32.8336" fill="white"/>
<path d="M28.3563 33.1029L28.2241 32.6873L28.0189 32.7554" fill="white"/>
<path d="M28.3558 33.1034L28.0084 32.8468L28.1353 32.6693" fill="white"/>
<path d="M27.8513 33.1039L28.1986 32.8474L28.0717 32.6698" fill="white"/>
<path d="M27.8508 33.1034L27.9829 32.6879L28.1881 32.756" fill="white"/>
<path d="M29.1354 31.3167L29.0291 31.6495L29.1927 31.7036" fill="white"/>
<path d="M29.1354 31.3167L29.2417 31.6495L29.0781 31.7036" fill="white"/>
<path d="M29.4628 31.5587L29.1195 31.5602L29.1188 31.7337" fill="white"/>
<path d="M29.4628 31.558L29.1839 31.7645L29.0834 31.6236" fill="white"/>
<path d="M28.8082 31.5578L29.0871 31.7642L29.1876 31.6234" fill="white"/>
<path d="M28.8082 31.5585L29.1515 31.5599L29.1522 31.7335" fill="white"/>
<path d="M29.3375 31.9494L29.2318 31.617L29.0677 31.6714" fill="white"/>
<path d="M29.3372 31.9498L29.0593 31.7446L29.1608 31.6025" fill="white"/>
<path d="M28.9335 31.9498L29.2114 31.7446L29.1099 31.6025" fill="white"/>
<path d="M28.9332 31.9494L29.0389 31.617L29.203 31.6714" fill="white"/>
<path d="M27.1535 31.0167L27.0472 31.3495L27.2108 31.4036" fill="white"/>
<path d="M27.1535 31.0167L27.2598 31.3495L27.0962 31.4036" fill="white"/>
<path d="M27.4809 31.2587L27.1376 31.2602L27.1369 31.4337" fill="white"/>
<path d="M27.4809 31.258L27.202 31.4644L27.1015 31.3236" fill="white"/>
<path d="M26.8264 31.2578L27.1053 31.4642L27.2057 31.3234" fill="white"/>
<path d="M26.8264 31.2585L27.1696 31.2599L27.1703 31.4335" fill="white"/>
<path d="M27.3557 31.6494L27.2499 31.3169L27.0858 31.3714" fill="white"/>
<path d="M27.3553 31.6498L27.0774 31.4446L27.1789 31.3025" fill="white"/>
<path d="M26.9517 31.6498L27.2295 31.4446L27.128 31.3025" fill="white"/>
<path d="M26.9513 31.6494L27.057 31.3169L27.2212 31.3714" fill="white"/>
<path d="M19.6681 30.475L19.5087 30.9743L19.754 31.0554" fill="white"/>
<path d="M19.6681 30.475L19.8275 30.9743L19.5822 31.0554" fill="white"/>
<path d="M20.1588 30.8378L19.6439 30.8399L19.6428 31.1003" fill="white"/>
<path d="M20.1588 30.8367L19.7404 31.1464L19.5897 30.9351" fill="white"/>
<path d="M19.1774 30.8367L19.5957 31.1464L19.7464 30.9351" fill="white"/>
<path d="M19.1774 30.8378L19.6923 30.8399L19.6933 31.1003" fill="white"/>
<path d="M19.9716 31.4234L19.813 30.9247L19.5668 31.0064" fill="white"/>
<path d="M19.9709 31.424L19.5541 31.1161L19.7064 30.903" fill="white"/>
<path d="M19.3656 31.4248L19.7824 31.1169L19.6302 30.9038" fill="white"/>
<path d="M19.365 31.4242L19.5236 30.9255L19.7698 31.0072" fill="white"/>
<path d="M24.5 33.9083L24.4469 34.0748L24.5286 34.1018" fill="white"/>
<path d="M24.5 33.9083L24.5531 34.0748L24.4714 34.1018" fill="white"/>
<path d="M24.6636 34.0293L24.4919 34.03L24.4916 34.1168" fill="white"/>
<path d="M24.6636 34.0289L24.5241 34.1321L24.4739 34.0617" fill="white"/>
<path d="M24.3364 34.0289L24.4759 34.1321L24.5261 34.0617" fill="white"/>
<path d="M24.3364 34.0292L24.5081 34.03L24.5084 34.1167" fill="white"/>
<path d="M24.6011 34.2247L24.5482 34.0585L24.4661 34.0857" fill="white"/>
<path d="M24.6009 34.2249L24.462 34.1223L24.5127 34.0513" fill="white"/>
<path d="M24.3995 34.225L24.5385 34.1223L24.4877 34.0513" fill="white"/>
<path d="M24.3994 34.2248L24.4522 34.0585L24.5343 34.0858" fill="white"/>
</g>
<defs>
<clipPath id="clip0_4_182">
<rect width="49" height="49" rx="5" fill="white"/>
</clipPath>
</defs>
</svg>
