<svg width="54" height="54" viewBox="0 0 54 54" fill="none" xmlns="http://www.w3.org/2000/svg">
<path d="M50.9531 0.0528259L46.4612 48.707L26.9997 53.9471L7.53784 48.707L3.04688 0.0528259H50.9531ZM41.9017 9.9459H26.9822H11.7984L12.5245 15.8214H26.9822H27.7943L26.9822 16.1594L13.0529 21.9608L13.5149 27.7039L26.9822 27.7475L34.2002 27.7704L33.7382 35.4281L26.9821 37.3302V37.3242L26.9267 37.3396L20.402 35.6925L20.006 30.939H19.9844H13.9324H13.9111L14.7033 40.1156L26.9823 43.7467V43.7402L27.0044 43.7467L39.2176 40.1817L40.8018 21.9608H26.9823H26.9482L26.9823 21.946L41.3081 15.8214L41.9017 9.9459Z" fill="black" fill-opacity="0.2"/>
</svg>
