<svg width="60" height="60" viewBox="0 0 60 60" fill="none" xmlns="http://www.w3.org/2000/svg">
<path d="M57.0524 27.4931L32.4993 2.94188C31.843 2.28751 30.9374 1.88251 29.9361 1.88251C28.9349 1.88251 28.0293 2.28751 27.373 2.94188L22.2861 8.03813L28.753 14.505C29.1655 14.3606 29.6399 14.2781 30.1349 14.2781C32.5143 14.2781 34.4418 16.2056 34.4418 18.585C34.4418 19.0894 34.3555 19.5713 34.1962 20.0213L34.2055 19.9913L40.4343 26.2238C40.8505 26.0756 41.3324 25.9894 41.833 25.9894C44.2105 25.9894 46.138 27.9169 46.138 30.2944C46.138 32.6719 44.2105 34.5994 41.833 34.5994C39.4555 34.5994 37.528 32.6719 37.528 30.2944C37.528 29.7075 37.6462 29.1488 37.858 28.6388L37.8468 28.6669L32.0155 22.8656V38.1544C33.448 38.8763 34.4137 40.335 34.4137 42.0188C34.4137 44.4 32.4824 46.3313 30.1012 46.3313C27.7199 46.3313 25.7887 44.4 25.7887 42.0188C25.7887 40.83 26.2687 39.7556 27.0468 38.9756C27.4424 38.58 27.913 38.2594 28.4362 38.0344L28.4643 38.0231V22.5844C26.8855 21.9206 25.798 20.385 25.798 18.5981C25.798 17.9981 25.9199 17.4281 26.1412 16.9088L26.1299 16.9369L19.7755 10.5525L2.93803 27.3788C2.28553 28.0369 1.88428 28.9425 1.88428 29.9438C1.88428 30.945 2.2874 31.8506 2.9399 32.5088L27.4949 57.0563C28.1493 57.7125 29.0549 58.1175 30.0562 58.1175C31.0574 58.1175 31.9612 57.7125 32.6174 57.0563L57.0562 32.6175C57.7124 31.9631 58.1193 31.0556 58.1193 30.0563C58.1193 29.0569 57.7124 28.1494 57.0562 27.495L57.0524 27.4931Z" fill="black" fill-opacity="0.2"/>
</svg>
