<svg width="48" height="47" viewBox="0 0 48 47" fill="none" xmlns="http://www.w3.org/2000/svg">
<path d="M3.87804 25.5756C2.70732 24.4293 2.70732 22.5707 3.87804 21.4244L21.8802 3.79725C23.051 2.65092 24.9491 2.65092 26.1198 3.79725L44.1219 21.4244C45.2927 22.5707 45.2927 24.4293 44.1219 25.5756L26.1198 43.2027C24.9491 44.3491 23.051 44.3491 21.8802 43.2027L3.87804 25.5756Z" fill="#EE513B"/>
<path d="M18.2233 7.43411L16.4004 9.21914L21.1087 13.8294C20.9182 14.2295 20.8119 14.6758 20.8119 15.1463C20.8119 16.4823 21.6691 17.6222 22.8744 18.0674V29.3453C21.6691 29.7905 20.8119 30.9304 20.8119 32.2664C20.8119 33.9901 22.239 35.3875 23.9994 35.3875C25.7598 35.3875 27.1869 33.9901 27.1869 32.2664C27.1869 31.0553 26.4823 30.0051 25.4526 29.4878V18.0828L29.9533 22.4898C29.7721 22.8818 29.6713 23.317 29.6713 23.7753C29.6713 25.499 31.0984 26.8963 32.8588 26.8963C34.6192 26.8963 36.0463 25.499 36.0463 23.7753C36.0463 22.0515 34.6192 20.6542 32.8588 20.6542C32.5167 20.6542 32.1873 20.7069 31.8783 20.8046L27.0445 16.0715C27.1371 15.7792 27.1869 15.4684 27.1869 15.1463C27.1869 13.4226 25.7598 12.0252 23.9994 12.0252C23.6704 12.0252 23.3532 12.074 23.0545 12.1646L18.2233 7.43411Z" fill="white"/>
</svg>
