<svg width="51" height="45" viewBox="0 0 51 45" fill="none" xmlns="http://www.w3.org/2000/svg">
<path d="M43.5202 3.99741L40.2369 40.7796L25.478 44.8712L10.7597 40.7852L7.47977 3.99741H43.5202Z" fill="#E44D26"/>
<path d="M25.5 41.7436L37.426 38.4374L40.2317 7.00528H25.5V41.7436Z" fill="#F16529"/>
<path d="M19.1172 16.0292H25.5V11.5173H14.1863L14.2943 12.7277L15.4033 25.1613H25.5V20.6494H19.5296L19.1172 16.0292ZM20.1341 27.4173H15.6049L16.2369 34.5016L25.4792 37.0672L25.5 37.0615V32.3673L25.4802 32.3725L20.4554 31.0157L20.1341 27.4173Z" fill="#EBEBEB"/>
<path d="M25.4845 25.1613H31.0403L30.5165 31.0129L25.4843 32.3711V37.0651L34.734 34.5016L34.8018 33.7393L35.8622 21.861L35.9722 20.6494H25.4845V25.1613ZM25.4845 16.0182V16.0292H36.3828L36.4732 15.0151L36.6789 12.7277L36.7867 11.5173H25.4845V16.0182Z" fill="white"/>
</svg>
