<svg width="42" height="42" viewBox="0 0 42 42" fill="none" xmlns="http://www.w3.org/2000/svg">
<g clip-path="url(#clip0_9_2522)">
<path fill-rule="evenodd" clip-rule="evenodd" d="M5.42095 0.0410156H36.578C39.5376 0.0410156 41.959 2.46135 41.959 5.42095V36.578C41.959 39.5376 39.5376 41.959 36.578 41.959H5.42095C2.46135 41.959 0.0410156 39.5376 0.0410156 36.578V5.42095C0.0410156 2.46135 2.46135 0.0410156 5.42095 0.0410156ZM30.5758 4.69744C29.5381 4.69744 28.6887 5.54687 28.6887 6.58457V11.1018C28.6887 12.1395 29.5381 12.9889 30.5758 12.9889H35.3141C36.3518 12.9889 37.2013 12.1396 37.2013 11.1018V6.58457C37.2013 5.54687 36.3519 4.69744 35.3141 4.69744H30.5758ZM37.2207 17.7671H33.5313C33.8803 18.9071 34.0686 20.1137 34.0686 21.3644C34.0686 28.3367 28.2353 33.9888 21.0389 33.9888C13.8434 33.9888 8.01011 28.3367 8.01011 21.3644C8.01011 20.1138 8.19837 18.9072 8.54741 17.7671H4.69842V35.4738C4.69842 36.3908 5.44753 37.1409 6.36456 37.1409H35.5546C36.4706 37.1409 37.2208 36.3907 37.2208 35.4738V17.7671H37.2207ZM21.039 12.7515C16.3897 12.7515 12.6205 16.404 12.6205 20.9089C12.6205 25.4139 16.3897 29.0664 21.039 29.0664C25.6892 29.0664 29.4583 25.4139 29.4583 20.9089C29.4583 16.404 25.6892 12.7515 21.039 12.7515Z" fill="black"/>
</g>
<defs>
<clipPath id="clip0_9_2522">
<rect width="42" height="42" fill="white"/>
</clipPath>
</defs>
</svg>
