<svg width="54" height="54" viewBox="0 0 54 54" fill="none" xmlns="http://www.w3.org/2000/svg">
<g clip-path="url(#clip0_7_1907)">
<path fill-rule="evenodd" clip-rule="evenodd" d="M41.3856 49.7668C36.6741 49.7668 33.6285 47.5206 32.1435 44.583L36.2745 42.1901C37.3626 43.9667 38.7747 45.2711 41.2776 45.2711C43.3782 45.2711 44.7201 44.2201 44.7201 42.7702C44.7201 40.5886 41.8095 39.7362 39.7548 38.856C36.0936 37.2981 33.6636 35.3406 33.6636 31.2069C33.6636 27.4026 36.5634 24.503 41.0967 24.503C44.3205 24.503 46.6425 25.626 48.3084 28.5609L44.3583 31.0988C43.4889 29.5409 42.5466 28.9248 41.0967 28.9248C39.609 28.9248 38.6667 29.8676 38.6667 31.0988C38.6667 32.6216 39.609 33.2375 41.7852 34.1798C46.3455 36.1346 49.7961 37.6703 49.7961 42.6977C49.7961 47.2661 46.2078 49.7668 41.3856 49.7668ZM29.7 42.1176C29.7 47.3745 26.4627 50.153 21.9672 50.153C17.9064 50.153 15.4737 48.6 14.2776 45.9H14.2371H14.2182H14.2074L18.3357 43.0141C19.1322 44.4262 19.8504 45.428 21.5892 45.428C23.2578 45.428 24.3 44.5831 24.3 42.0478V24.3H29.7V42.1176ZM0 54H54V0H0V54Z" fill="black" fill-opacity="0.2"/>
</g>
<defs>
<clipPath id="clip0_7_1907">
<rect width="54" height="54" fill="white"/>
</clipPath>
</defs>
</svg>
