<svg width="40" height="39" viewBox="0 0 40 39" fill="none" xmlns="http://www.w3.org/2000/svg">
<g clip-path="url(#clip0_4_26)">
<path d="M0 0H40V39H0V0Z" fill="#F7DF1E"/>
<path d="M10.5175 32.5913L13.5785 30.7851C14.1691 31.8059 14.7063 32.6697 15.9949 32.6697C17.23 32.6697 18.0088 32.1986 18.0088 30.3662V17.9048H21.7677V30.418C21.7677 34.214 19.4856 35.9419 16.156 35.9419C13.149 35.9419 11.4034 34.4234 10.5174 32.591" fill="black"/>
<path d="M23.8095 32.1985L26.8702 30.4707C27.6759 31.7536 28.7231 32.696 30.5757 32.696C32.1332 32.696 33.1264 31.9367 33.1264 30.8895C33.1264 29.6329 32.1061 29.1878 30.3877 28.4551L29.4482 28.0621C26.7361 26.9366 24.9371 25.523 24.9371 22.5385C24.9371 19.7896 27.0851 17.6952 30.4415 17.6952C32.8312 17.6952 34.5496 18.5069 35.7846 20.6274L32.8579 22.4598C32.2134 21.3342 31.5155 20.8893 30.4416 20.8893C29.3407 20.8893 28.6425 21.5699 28.6425 22.4598C28.6425 23.5594 29.3407 24.0046 30.9515 24.6853L31.8912 25.0779C35.0865 26.4131 36.8855 27.7743 36.8855 30.8372C36.8855 34.1359 34.2274 35.9421 30.6563 35.9421C27.1658 35.9421 24.9102 34.3191 23.8095 32.1985Z" fill="black"/>
</g>
<defs>
<clipPath id="clip0_4_26">
<rect width="40" height="39" fill="white"/>
</clipPath>
</defs>
</svg>
