<svg width="49" height="49" viewBox="0 0 49 49" fill="none" xmlns="http://www.w3.org/2000/svg">
<g clip-path="url(#clip0_4_36)">
<path d="M92.0769 0H0V49H92.0769V0Z" fill="#B22234"/>
<path d="M0 5.65384H92.0769H0ZM92.0769 13.1923H0H92.0769ZM0 20.7308H92.0769H0ZM92.0769 28.2692H0H92.0769ZM0 35.8077H92.0769H0ZM92.0769 43.3461H0H92.0769Z" fill="black"/>
<path fill-rule="evenodd" clip-rule="evenodd" d="M92.0769 7.53846H0V3.76923H92.0769V7.53846ZM0 11.3077H92.0769V15.0769H0V11.3077ZM92.0769 22.6154H0V18.8461H92.0769V22.6154ZM0 26.3846H92.0769V30.1538H0V26.3846ZM92.0769 37.6923H0V33.9231H92.0769V37.6923ZM0 41.4615H92.0769V45.2308H0V41.4615Z" fill="white"/>
<path d="M36.8308 0H0V26.3846H36.8308V0Z" fill="#3C3B6E"/>
<path d="M3.06921 1.13077L3.94567 3.85821L1.65106 2.17256H4.48735L2.19274 3.85821L3.06921 1.13077Z" fill="white"/>
<path d="M3.06921 6.40768L3.94567 9.13513L1.65106 7.44947H4.48735L2.19274 9.13513L3.06921 6.40768Z" fill="white"/>
<path d="M3.06921 11.6846L3.94567 14.4121L1.65106 12.7264H4.48735L2.19274 14.4121L3.06921 11.6846Z" fill="white"/>
<path d="M3.06921 16.9615L3.94567 19.689L1.65106 18.0033H4.48735L2.19274 19.689L3.06921 16.9615Z" fill="white"/>
<path d="M3.06921 22.2385L3.94567 24.9659L1.65106 23.2803H4.48735L2.19274 24.9659L3.06921 22.2385Z" fill="white"/>
<path d="M6.13842 3.76923L7.01488 6.49667L4.72028 4.81102H7.55656L5.26196 6.49667L6.13842 3.76923Z" fill="white"/>
<path d="M6.13842 9.04614L7.01488 11.7736L4.72028 10.0879H7.55656L5.26196 11.7736L6.13842 9.04614Z" fill="white"/>
<path d="M6.13842 14.3231L7.01488 17.0505L4.72028 15.3649H7.55656L5.26196 17.0505L6.13842 14.3231Z" fill="white"/>
<path d="M6.13842 19.6L7.01488 22.3274L4.72028 20.6418H7.55656L5.26196 22.3274L6.13842 19.6Z" fill="white"/>
<path d="M9.20769 1.13077L10.0842 3.85821L7.78955 2.17256H10.6258L8.33123 3.85821L9.20769 1.13077Z" fill="white"/>
<path d="M9.20769 6.40768L10.0842 9.13513L7.78955 7.44947H10.6258L8.33123 9.13513L9.20769 6.40768Z" fill="white"/>
<path d="M9.20769 11.6846L10.0842 14.4121L7.78955 12.7264H10.6258L8.33123 14.4121L9.20769 11.6846Z" fill="white"/>
<path d="M9.20769 16.9615L10.0842 19.689L7.78955 18.0033H10.6258L8.33123 19.689L9.20769 16.9615Z" fill="white"/>
<path d="M9.20769 22.2385L10.0842 24.9659L7.78955 23.2803H10.6258L8.33123 24.9659L9.20769 22.2385Z" fill="white"/>
<path d="M12.2769 3.76923L13.1534 6.49667L10.8588 4.81102H13.6951L11.4004 6.49667L12.2769 3.76923Z" fill="white"/>
<path d="M12.2769 9.04614L13.1534 11.7736L10.8588 10.0879H13.6951L11.4004 11.7736L12.2769 9.04614Z" fill="white"/>
<path d="M12.2769 14.3231L13.1534 17.0505L10.8588 15.3649H13.6951L11.4004 17.0505L12.2769 14.3231Z" fill="white"/>
<path d="M12.2769 19.6L13.1534 22.3274L10.8588 20.6418H13.6951L11.4004 22.3274L12.2769 19.6Z" fill="white"/>
<path d="M15.3461 1.13077L16.2226 3.85821L13.928 2.17256H16.7643L14.4697 3.85821L15.3461 1.13077Z" fill="white"/>
<path d="M15.3461 6.40768L16.2226 9.13513L13.928 7.44947H16.7643L14.4697 9.13513L15.3461 6.40768Z" fill="white"/>
<path d="M15.3461 11.6846L16.2226 14.4121L13.928 12.7264H16.7643L14.4697 14.4121L15.3461 11.6846Z" fill="white"/>
<path d="M15.3461 16.9615L16.2226 19.689L13.928 18.0033H16.7643L14.4697 19.689L15.3461 16.9615Z" fill="white"/>
<path d="M15.3461 22.2385L16.2226 24.9659L13.928 23.2803H16.7643L14.4697 24.9659L15.3461 22.2385Z" fill="white"/>
<path d="M18.4153 3.76923L19.2918 6.49667L16.9972 4.81102H19.8335L17.5389 6.49667L18.4153 3.76923Z" fill="white"/>
<path d="M18.4153 9.04614L19.2918 11.7736L16.9972 10.0879H19.8335L17.5389 11.7736L18.4153 9.04614Z" fill="white"/>
<path d="M18.4153 14.3231L19.2918 17.0505L16.9972 15.3649H19.8335L17.5389 17.0505L18.4153 14.3231Z" fill="white"/>
<path d="M18.4153 19.6L19.2918 22.3274L16.9972 20.6418H19.8335L17.5389 22.3274L18.4153 19.6Z" fill="white"/>
<path d="M21.4846 1.13077L22.3611 3.85821L20.0665 2.17256H22.9028L20.6082 3.85821L21.4846 1.13077Z" fill="white"/>
<path d="M21.4846 6.40768L22.3611 9.13513L20.0665 7.44947H22.9028L20.6082 9.13513L21.4846 6.40768Z" fill="white"/>
<path d="M21.4846 11.6846L22.3611 14.4121L20.0665 12.7264H22.9028L20.6082 14.4121L21.4846 11.6846Z" fill="white"/>
<path d="M21.4846 16.9615L22.3611 19.689L20.0665 18.0033H22.9028L20.6082 19.689L21.4846 16.9615Z" fill="white"/>
<path d="M21.4846 22.2385L22.3611 24.9659L20.0665 23.2803H22.9028L20.6082 24.9659L21.4846 22.2385Z" fill="white"/>
<path d="M24.5538 3.76923L25.4303 6.49667L23.1357 4.81102H25.972L23.6774 6.49667L24.5538 3.76923Z" fill="white"/>
<path d="M24.5538 9.04614L25.4303 11.7736L23.1357 10.0879H25.972L23.6774 11.7736L24.5538 9.04614Z" fill="white"/>
<path d="M24.5538 14.3231L25.4303 17.0505L23.1357 15.3649H25.972L23.6774 17.0505L24.5538 14.3231Z" fill="white"/>
<path d="M24.5538 19.6L25.4303 22.3274L23.1357 20.6418H25.972L23.6774 22.3274L24.5538 19.6Z" fill="white"/>
<path d="M27.623 1.13077L28.4995 3.85821L26.2049 2.17256H29.0412L26.7466 3.85821L27.623 1.13077Z" fill="white"/>
<path d="M27.623 6.40768L28.4995 9.13513L26.2049 7.44947H29.0412L26.7466 9.13513L27.623 6.40768Z" fill="white"/>
<path d="M27.623 11.6846L28.4995 14.4121L26.2049 12.7264H29.0412L26.7466 14.4121L27.623 11.6846Z" fill="white"/>
<path d="M27.623 16.9615L28.4995 19.689L26.2049 18.0033H29.0412L26.7466 19.689L27.623 16.9615Z" fill="white"/>
<path d="M27.623 22.2385L28.4995 24.9659L26.2049 23.2803H29.0412L26.7466 24.9659L27.623 22.2385Z" fill="white"/>
<path d="M30.6923 3.76923L31.5687 6.49667L29.2741 4.81102H32.1104L29.8158 6.49667L30.6923 3.76923Z" fill="white"/>
<path d="M30.6923 9.04614L31.5687 11.7736L29.2741 10.0879H32.1104L29.8158 11.7736L30.6923 9.04614Z" fill="white"/>
<path d="M30.6923 14.3231L31.5687 17.0505L29.2741 15.3649H32.1104L29.8158 17.0505L30.6923 14.3231Z" fill="white"/>
<path d="M30.6923 19.6L31.5687 22.3274L29.2741 20.6418H32.1104L29.8158 22.3274L30.6923 19.6Z" fill="white"/>
<path d="M33.7615 1.13077L34.638 3.85821L32.3434 2.17256H35.1797L32.8851 3.85821L33.7615 1.13077Z" fill="white"/>
<path d="M33.7615 6.40768L34.638 9.13513L32.3434 7.44947H35.1797L32.8851 9.13513L33.7615 6.40768Z" fill="white"/>
<path d="M33.7615 11.6846L34.638 14.4121L32.3434 12.7264H35.1797L32.8851 14.4121L33.7615 11.6846Z" fill="white"/>
<path d="M33.7615 16.9615L34.638 19.689L32.3434 18.0033H35.1797L32.8851 19.689L33.7615 16.9615Z" fill="white"/>
<path d="M33.7615 22.2385L34.638 24.9659L32.3434 23.2803H35.1797L32.8851 24.9659L33.7615 22.2385Z" fill="white"/>
</g>
<defs>
<clipPath id="clip0_4_36">
<rect width="49" height="49" rx="5" fill="white"/>
</clipPath>
</defs>
</svg>
