<svg width="42" height="42" viewBox="0 0 42 42" fill="none" xmlns="http://www.w3.org/2000/svg">
<path d="M22.3125 0C11.4187 0 2.625 8.79375 2.625 19.6875C2.625 24.15 4.06875 28.35 6.825 31.7625L4.06875 40.1625C3.9375 40.6875 4.06875 41.2125 4.4625 41.6063C4.59375 41.8688 4.9875 42 5.25 42C5.38125 42 5.64375 42 5.775 41.8687L14.8313 37.8C17.1938 38.85 19.6875 39.375 22.3125 39.375C33.2063 39.375 42 30.5813 42 19.6875C42 8.79375 33.2063 0 22.3125 0ZM33.7313 26.9062C33.2063 28.4813 31.2375 29.7937 29.5312 30.0562C29.1375 30.1875 28.7437 30.1875 28.2188 30.1875C27.1688 30.1875 25.5938 29.925 22.8375 28.7437C19.6875 27.4312 16.5375 24.675 14.0437 21.1313V21C13.2562 19.8188 11.8125 17.5875 11.8125 15.225C11.8125 12.3375 13.2563 10.8938 13.7812 10.2375C14.4375 9.58125 15.3562 9.1875 16.4062 9.1875C16.6687 9.1875 16.8 9.1875 17.0625 9.1875C17.9812 9.1875 18.6375 9.45 19.2937 10.7625L19.8188 11.8125C20.2125 12.8625 20.7375 14.0437 20.8687 14.175C21.2625 14.9625 21.2625 15.6187 20.8687 16.275C20.7375 16.6687 20.475 16.9312 20.2125 17.1938C20.0812 17.4563 19.95 17.5875 19.8188 17.5875C19.6875 17.7188 19.6875 17.7188 19.5562 17.85C19.95 18.5063 20.7375 19.6875 21.7875 20.6062C23.3625 22.05 24.5438 22.4437 25.2 22.7062C25.4625 22.4437 25.725 21.9187 26.1187 21.525L26.25 21.2625C26.9062 20.3438 27.9563 20.0813 29.0063 20.475C29.5312 20.7375 32.4188 22.05 32.4188 22.05L32.6812 22.1812C33.075 22.4438 33.6 22.575 33.8625 23.1C34.3875 24.2812 33.9938 25.9875 33.7313 26.9062Z" fill="black"/>
</svg>
